#!OML:ASF E:\emotionWalksFemale\Project 1\Capture day 1\Session 1\Female1.ASF
:FULLY-SPECIFIED
:DEGREES
1238
root 9.85861 15.561 -13.2958 179.006 -180.984 -184.16
lowerback 9.28621 0.33921 5.4329
upperback -5.83827 1.31563 0.708349
thorax -11.4681 0.237675 -2.53594
lowerneck -11.3019 -2.38642 -3.47329
upperneck 14.5838 -2.81678 1.16124
head 6.35925 -1.46237 0.691868
rclavicle 1.41634e-015 3.37934e-015
rhumerus -17.2878 20.6263 -82.2164
rradius 86.5504
rwrist -39.1308
rhand 5.83336 -42.9393
rfingers 7.12502
rthumb -148.835 109.691
lclavicle 1.41634e-015 3.37934e-015
lhumerus -58.3478 -2.15693 76.6134
lradius 31.1191
lwrist -15.8169
lhand -8.48046 333.525
lfingers 7.12502
lthumb 17.4465 2.76217
rfemur -2.01514 16.8345 31.7928
rtibia 3.97569e-015
rfoot -2.99367 -24.2396
rtoes -1.85683
lfemur -20.0337 4.04556 -14.2042
ltibia 90.1636
lfoot -5.2755 -9.91172
ltoes -9.18246
1239
root 9.84738 15.5737 -13.1753 178.949 -180.708 -184.574
lowerback 9.3611 0.568403 5.98505
upperback -5.7479 1.69995 0.656081
thorax -11.3682 0.380322 -2.97507
lowerneck -11.0162 -2.62724 -3.69765
upperneck 14.2643 -3.17976 1.57137
head 6.22747 -1.61758 0.831288
rclavicle -3.32343e-014 -3.51849e-014
rhumerus -14.4684 20.6944 -80.6163
rradius 87.011
rwrist -39.4381
rhand 5.95619 -42.8706
rfingers 7.12502
rthumb -148.718 109.782
lclavicle -3.32343e-014 -3.51849e-014
lhumerus -60.0142 -2.70946 75.6529
lradius 31.3967
lwrist -14.3438
lhand -8.99906 334.125
lfingers 7.12502
lthumb 16.9473 3.40552
rfemur -1.40173 16.7665 32.4903
rtibia -1.19271e-014
rfoot -3.37769 -23.8448
rtoes -1.19433
lfemur -22.4353 4.31665 -13.6115
ltibia 93.544
lfoot -6.60542 -10.3895
ltoes -11.9184
1240
root 9.83702 15.5941 -13.0466 178.844 -180.395 -184.524
lowerback 9.32143 0.854445 6.07471
upperback -5.60497 2.0699 0.47842
thorax -11.1371 0.552721 -3.28344
lowerneck -11.1712 -2.88453 -3.82732
upperneck 14.4523 -3.53962 1.79416
head 6.33021 -1.78074 0.888479
rclavicle -5.81445e-015 1.2921e-014
rhumerus -12.0444 20.6613 -78.9349
rradius 87.2944
rwrist -39.5716
rhand 6.01869 -42.8705
rfingers 7.12502
rthumb -148.659 109.794
lclavicle -5.81445e-015 1.2921e-014
lhumerus -61.4591 -2.99305 74.4106
lradius 31.6242
lwrist -12.8257
lhand -10.9214 333.949
lfingers 7.12502
lthumb 15.0963 3.37802
rfemur -0.672331 16.7239 32.7059
rtibia -7.95139e-015
rfoot -3.78008 -23.4265
rtoes -0.796235
lfemur -24.5934 4.45485 -13.6691
ltibia 96.6166
lfoot -7.80626 -10.5512
ltoes -12.7981
1241
root 9.82894 15.614 -12.9256 178.83 -180.11 -184.278
lowerback 9.25604 1.16245 5.93064
upperback -5.50234 2.43527 0.289741
thorax -10.9391 0.739254 -3.46875
lowerneck -11.0696 -3.16394 -3.97158
upperneck 14.419 -3.91383 1.88862
head 6.31806 -1.96276 0.909913
rclavicle -2.26366e-014 -2.38542e-015
rhumerus -9.49868 20.5181 -77.1517
rradius 87.2217
rwrist -39.3912
rhand 6.24074 -42.9786
rfingers 7.12502
rthumb -148.447 109.727
lclavicle -2.26366e-014 -2.38542e-015
lhumerus -62.5016 -3.00768 72.9379
lradius 31.4492
lwrist -11.4748
lhand -11.285 333.996
lfingers 7.12502
lthumb 14.7459 3.45099
rfemur -0.088976 16.674 32.6631
rtibia 6.36111e-015
rfoot -3.95274 -23.0156
rtoes -0.296386
lfemur -26.8239 4.59378 -14.0217
ltibia 99.4849
lfoot -9.00165 -10.5121
ltoes -13.8198
1242
root 9.81929 15.6327 -12.8089 178.767 -179.759 -184.075
lowerback 9.47411 1.50334 5.69169
upperback -5.54309 2.86813 0.194972
thorax -11.075 0.954149 -3.52438
lowerneck -10.5669 -3.41528 -4.40369
upperneck 14.2862 -4.25407 2.21725
head 6.21681 -2.12839 1.06257
rclavicle -1.64743e-014 -5.36719e-015
rhumerus -7.40135 20.3837 -75.3514
rradius 86.9643
rwrist -39.0677
rhand 6.2483 -42.5508
rfingers 7.12502
rthumb -148.44 110.156
lclavicle -1.64743e-014 -5.36719e-015
lhumerus -64.7745 -3.71218 72.2053
lradius 33.4546
lwrist -8.91179
lhand -9.56488 334.952
lfingers 7.12502
lthumb 16.4026 4.27798
rfemur 0.521489 16.6759 32.6851
rtibia 2.10712e-014
rfoot -3.93486 -22.6006
rtoes -0.133877
lfemur -28.9083 4.84923 -14.2825
ltibia 102.131
lfoot -10.1593 -10.6213
ltoes -15.5738
1243
root 9.80527 15.653 -12.6891 178.677 -179.318 -183.927
lowerback 9.31775 1.85948 5.58788
upperback -5.36262 3.29807 0.0395169
thorax -10.7281 1.17813 -3.69745
lowerneck -10.4548 -3.66426 -4.7213
upperneck 14.3079 -4.60699 2.60317
head 6.23342 -2.28721 1.20699
rclavicle 4.07509e-015 5.1684e-015
rhumerus -5.28423 19.9695 -73.6789
rradius 86.5832
rwrist -38.7156
rhand 6.61877 -42.3741
rfingers 7.12502
rthumb -148.087 110.403
lclavicle 4.07509e-015 5.1684e-015
lhumerus -65.526 -3.63025 70.3577
lradius 33.2915
lwrist -7.62299
lhand -8.21029 334.673
lfingers 7.12502
lthumb 17.7065 3.88724
rfemur 1.21375 16.7599 32.8084
rtibia 1.70955e-014
rfoot -4.06407 -22.1806
rtoes 0.0950155
lfemur -30.8715 5.12058 -14.4463
ltibia 104.565
lfoot -11.1166 -10.601
ltoes -19.1738
1244
root 9.7963 15.6689 -12.5724 178.563 -178.855 -183.916
lowerback 9.50413 2.05934 5.39446
upperback -5.9821 3.60348 0.267653
thorax -11.536 1.30705 -3.42503
lowerneck -7.5192 -3.62009 -5.54366
upperneck 13.736 -4.60234 2.84795
head 5.57599 -2.3362 1.47142
rclavicle -1.14301e-015 1.37161e-014
rhumerus -4.85722 20.6257 -72.4245
rradius 86.262
rwrist -38.3428
rhand 7.36722 -42.4404
rfingers 7.12502
rthumb -147.375 110.481
lclavicle -1.14301e-015 1.37161e-014
lhumerus -68.2899 -3.27545 68.5106
lradius 33.5175
lwrist -7.20001
lhand -7.19229 334.557
lfingers 7.12502
lthumb 18.6859 3.67945
rfemur 1.90543 16.8531 33.0616
rtibia -1.03368e-014
rfoot -4.2055 -21.7669
rtoes 0.628694
lfemur -32.824 5.37028 -14.4999
ltibia 106.882
lfoot -12.3895 -10.1263
ltoes -19.2017
1245
root 9.79399 15.682 -12.4612 178.403 -178.438 -183.897
lowerback 9.75085 2.49044 5.48196
upperback -5.30368 4.15727 0.0266762
thorax -10.8382 1.59344 -3.82435
lowerneck -9.86524 -4.08929 -5.29892
upperneck 14.2969 -5.17871 2.96856
head 6.17615 -2.57275 1.37639
rclavicle -4.11484e-014 -3.57812e-015
rhumerus -1.71215 19.3277 -70.5354
rradius 85.5138
rwrist -38.1143
rhand 7.61426 -42.3615
rfingers 7.12502
rthumb -147.14 110.609
lclavicle -4.11484e-014 -3.57812e-015
lhumerus -67.5253 -3.00496 66.3014
lradius 33.2869
lwrist -7.4259
lhand -6.5885 333.65
lfingers 7.12502
lthumb 19.2666 2.71561
rfemur 2.58245 16.8872 33.2705
rtibia 1.72943e-014
rfoot -4.31115 -21.3753
rtoes 1.15037
lfemur -34.7581 5.5729 -14.6388
ltibia 109.068
lfoot -13.4283 -9.50158
ltoes -20.3144
1246
root 9.79086 15.695 -12.3464 178.197 -178.132 -183.773
lowerback 9.93071 2.76909 5.46627
upperback -5.15046 4.52417 -0.0784762
thorax -10.728 1.77299 -3.99894
lowerneck -9.52974 -4.2057 -5.7089
upperneck 14.0121 -5.36622 3.49549
head 6.06232 -2.64855 1.60122
rclavicle 3.94091e-014 1.19271e-015
rhumerus 0.0982108 18.8787 -69.088
rradius 84.9298
rwrist -38.2532
rhand 6.8625 -42.0793
rfingers 7.12502
rthumb -147.855 110.744
lclavicle 3.94091e-014 1.19271e-015
lhumerus -68.3427 -2.96799 64.3972
lradius 33.4596
lwrist -7.73683
lhand -6.0968 332.946
lfingers 7.12502
lthumb 19.7393 1.96375
rfemur 3.31731 16.803 33.3771
rtibia -1.8487e-014
rfoot -4.47624 -20.9807
rtoes 1.6262
lfemur -36.5884 5.6445 -14.9416
ltibia 111.049
lfoot -14.4352 -8.85065
ltoes -21.9458
1247
root 9.7849 15.7081 -12.2264 177.883 -177.817 -183.803
lowerback 10.2468 3.01402 5.59257
upperback -5.01021 4.88253 -0.120757
thorax -10.7089 1.93645 -4.19427
lowerneck -9.98137 -4.47317 -5.54814
upperneck 14.5614 -5.68777 3.13275
head 6.31457 -2.81907 1.41903
rclavicle -2.23136e-014 1.27222e-014
rhumerus 1.65823 18.4096 -67.8357
rradius 84.4354
rwrist -38.3113
rhand 6.06233 -41.7507
rfingers 7.12502
rthumb -148.617 110.921
lclavicle -2.23136e-014 1.27222e-014
lhumerus -69.3508 -3.10894 62.7733
lradius 33.9606
lwrist -7.96523
lhand -5.82609 333.063
lfingers 7.12502
lthumb 19.9995 2.05329
rfemur 4.19806 16.6963 33.7015
rtibia 2.64384e-014
rfoot -4.57269 -20.5787
rtoes 2.25284
lfemur -38.2438 5.76962 -15.032
ltibia 112.792
lfoot -15.5233 -7.97184
ltoes -23.7286
1248
root 9.77716 15.7229 -12.1105 177.58 -177.534 -183.921
lowerback 10.3704 3.24768 5.81432
upperback -4.79912 5.22276 -0.171424
thorax -10.4863 2.09584 -4.43043
lowerneck -9.6911 -4.65172 -5.50778
upperneck 14.3851 -5.95021 3.13825
head 6.21938 -2.94655 1.39816
rclavicle -9.49197e-015 6.75868e-015
rhumerus 3.04744 17.773 -66.7848
rradius 84.0302
rwrist -38.1358
rhand 6.08064 -41.769
rfingers 7.12502
rthumb -148.6 110.907
lclavicle -9.49197e-015 6.75868e-015
lhumerus -69.9928 -3.15792 61.0259
lradius 34.1733
lwrist -8.35605
lhand -5.90649 333.201
lfingers 7.12502
lthumb 19.9222 2.19933
rfemur 5.04098 16.5519 34.111
rtibia -4.72114e-015
rfoot -4.56623 -20.2016
rtoes 2.57573
lfemur -40.0344 5.87011 -15.0475
ltibia 114.323
lfoot -16.2359 -7.07736
ltoes -23.659
